# xmcd
# 
# Track frame offsets:
#     150
#     11873
#     28830
#     38452
#     49856
#     60946
#     72417
#     85673
#     96530
#     105975
#     120832
#     130617
#     141428
#     154945
#     171818
#     182992
# 
# Disc length: 2601
# 
# Revision: 1
# Processed by: cddbd v1.5.2PL0 Copyright (c) Steve Scherf et al.
# Submitted via: fre:ac v1.0.31
# 
DISCID=d10a2710
DTITLE=Various Artist - Ultimate Country [ CD 4 ]
DYEAR=2005
DGENRE=Country
TTITLE0=Johnny Cash - Thanks a Lot
TTITLE1=Connie Francis - Love is Strange
TTITLE2=Frankie Laine - Gunfight at the O K Corral
TTITLE3=Don Gibson - Sea of Heartbreak
TTITLE4=Patsy Cline - A Stranger in my Arms
TTITLE5=Roy Rogers - Hi-Ho Silver
TTITLE6=Ferlin Husky - Country Music is There to Stay
TTITLE7=Gene Autry - Can't Shake the Sand of Texas from my Shoes
TTITLE8=Hank Locklin - Geisha Girl
TTITLE9=John Anderson - Country Comfort
TTITLE10=Buck Owens - I've Got a Tiger by the Tail
TTITLE11=Justin Tubb - Take a Letter Miss Gray
TTITLE12=Lynn Anderson - Keep me in Mind
TTITLE13=Lynn Anderson - Blue Bayou
TTITLE14=Conway Twitty - Hello Darlin'
TTITLE15=Willie Nelson - Shelter of wour Arms
EXTD=YEAR: 2005
EXTT0=
EXTT1=
EXTT2=
EXTT3=
EXTT4=
EXTT5=
EXTT6=
EXTT7=
EXTT8=
EXTT9=
EXTT10=
EXTT11=
EXTT12=
EXTT13=
EXTT14=
EXTT15=
PLAYORDER=
